# xmcd CD database file
#
# Track frame offsets:
#	150
#	25450
#	41017
#	63246
#	92000
#	124019
#	143426
#	156811
#	184344
#
# Disc length: 2735 seconds
#
# Revision: 0
# Processed by: cddbd v1.5.2PL0 Copyright (c) Steve Scherf et al.
# Submitted via: CDex 1.70beta3
#
DISCID=730aad09
DTITLE=NICOLA CONTE - OTHER DIRECTIONS CD2 Extra Tracks
DYEAR=2010
DGENRE=Jazz
TTITLE0=CHARADE
TTITLE1=DANUBIAN
TTITLE2=BOHEMIAN'S DILEMMA
TTITLE3=NEFERTITI (alternative version)
TTITLE4=WALTZ OF THE SIRENS
TTITLE5=TEARDROP PAINTED BLUE
TTITLE6=QUIET STARS
TTITLE7=KIND OF SUNSHINE (extended version)
TTITLE8=WAININ' MOON (alternative version)
EXTD=YEAR: 2010
EXTT0=
EXTT1=
EXTT2=
EXTT3=
EXTT4=
EXTT5=
EXTT6=
EXTT7=
EXTT8=
PLAYORDER=
